<?xml version="1.0" encoding="utf-8"?>
<!-- Generator: Adobe Illustrator 23.0.0, SVG Export Plug-In . SVG Version: 6.00 Build 0)  -->
<svg version="1.1"
	 id="Layer_1" xmlns:cc="http://creativecommons.org/ns#" xmlns:dc="http://purl.org/dc/elements/1.1/" xmlns:inkscape="http://www.inkscape.org/namespaces/inkscape" xmlns:rdf="http://www.w3.org/1999/02/22-rdf-syntax-ns#" xmlns:sodipodi="http://sodipodi.sourceforge.net/DTD/sodipodi-0.dtd" xmlns:svg="http://www.w3.org/2000/svg"
	 xmlns="http://www.w3.org/2000/svg" xmlns:xlink="http://www.w3.org/1999/xlink" x="0px" y="0px" viewBox="0 0 100 125"
	 style="enable-background:new 0 0 100 125;" xml:space="preserve">
<style type="text/css">
	.st0{fill:#FFFFFF;}
</style>
<g transform="translate(0,-952.36218)">
	<path class="st0" d="M47.5,958.7c-9.7,8.5-13.8,21.7-13.4,34.9c0,0.8,0,1.5,0,2.1c-0.1,1.3-0.1,2.7-0.1,4c-8.8,9-10.1,21.6-5,31
		c0.9,1.7,3.5,2,4.8,0.6l8.5-9c5.1,0,10.3,0,15.4,0l8.5,9c1.3,1.4,3.9,1,4.8-0.6c5.1-9.4,3.8-22-5-31c0-1.3,0-2.7-0.1-4
		c0-0.7,0-1.5,0-2.1c0.4-13.2-3.7-26.5-13.4-35c-1.4-1.2-1.6-1.3-2.5-1.3C49,957.4,48.4,958,47.5,958.7L47.5,958.7z M47,968.2v8.2
		c0,1.6,1.4,3,3,3s3-1.5,3-3v-8.2c4.9,6.9,7.2,16,6.9,25.4c0,0.8,0,1.7,0,2.4c0.3,7.3-0.6,14.1-3,20.5c-4.6,0-9.3,0-13.9,0
		c-2.4-6.4-3.3-13.1-3-20.5c0-0.8,0-1.6,0-2.4C39.8,984.2,42.1,975.1,47,968.2z M50,981.4c-4.4,0-8,3.6-8,8s3.6,8,8,8s8-3.6,8-8
		S54.4,981.4,50,981.4z M50,987.4c1.1,0,2,0.9,2,2c0,1.1-0.9,2-2,2c-1.1,0-2-0.9-2-2S48.9,987.4,50,987.4z M50,999.3
		c-1.6,0-3,1.5-3,3.1v9c0,1.6,1.4,3,3,3s3-1.5,3-3v-9C53,1000.8,51.6,999.3,50,999.3z M34.8,1008.7c0.6,3.4,1.4,6.8,2.7,10.1
		l-4.8,5.1C31.4,1019,32,1013.6,34.8,1008.7z M65.3,1008.7c2.8,4.9,3.3,10.3,2.1,15.1l-4.8-5.1C63.8,1015.5,64.7,1012.1,65.3,1008.7
		z M50,1027.3c-1.6,0-3,1.5-3,3.1v14c0,1.6,1.4,3,3,3s3-1.5,3-3v-14C53,1028.8,51.6,1027.3,50,1027.3L50,1027.3z M41.9,1031.3
		c-1.6,0-3,1.5-3,3.1v10c0,1.6,1.4,3,3,3s3-1.5,3-3v-10C45,1032.8,43.5,1031.3,41.9,1031.3L41.9,1031.3z M58,1031.3
		c-1.6,0-3,1.5-2.9,3.1v10c0,1.6,1.4,3,3,3s3-1.5,3-3v-10C61.1,1032.8,59.6,1031.3,58,1031.3L58,1031.3z"/>
</g>
</svg>
